<svg xmlns="http://www.w3.org/2000/svg" viewBox="0 0 100 100">
    <title>opl_icon</title>
    <path d="M82.74,77.74c0,2.75-1.59,3.41-3.54,1.46L20.8,20.8c-1.94-1.94-1.29-3.54,1.46-3.54H77.74a5,5,0,0,1,5,5Z"
          style="fill:#ef3a5c;fill-rule:evenodd"/>
    <path d="M55.22,25.5a3.12,3.12,0,0,0-.56.75,2.11,2.11,0,0,0-.24.76,1.6,1.6,0,0,0,.08.72,1.7,1.7,0,0,0,.41.63,1.5,1.5,0,0,0,.53.35,1.57,1.57,0,0,0,.57.1,1.69,1.69,0,0,0,.56-.1,1.9,1.9,0,0,0,.49-.26l.5.5a2.24,2.24,0,0,1-.42.27,2.37,2.37,0,0,1-.49.19,2.65,2.65,0,0,1-.54.08,2,2,0,0,1-.56-.05,2.25,2.25,0,0,1-.56-.22,2.35,2.35,0,0,1-.53-.41,3,3,0,0,1-.34-.41,2.53,2.53,0,0,1-.27-.52,2.44,2.44,0,0,1-.15-.61,2.11,2.11,0,0,1,0-.69,2.78,2.78,0,0,1,.3-.74,3.71,3.71,0,0,1,.62-.78,4.19,4.19,0,0,1,.77-.62,3,3,0,0,1,.74-.33,2.17,2.17,0,0,1,.69-.08,2.34,2.34,0,0,1,.63.11,2.45,2.45,0,0,1,.56.27,3,3,0,0,1,.47.38,2.82,2.82,0,0,1,.42.53,2.31,2.31,0,0,1,.24.54,2,2,0,0,1,.08.52,2.11,2.11,0,0,1,0,.48,1.9,1.9,0,0,1-.15.42,1.68,1.68,0,0,1-.22.34l-.5-.5a1.6,1.6,0,0,0,.19-.48,1.41,1.41,0,0,0,0-.48,1.49,1.49,0,0,0-.16-.46,1.72,1.72,0,0,0-.32-.42,1.8,1.8,0,0,0-.65-.43,1.65,1.65,0,0,0-.73-.1,2.07,2.07,0,0,0-.76.23A3,3,0,0,0,55.22,25.5Z"
          style="fill:#fff"/>
    <path d="M56.54,30.69l5.37-2.47.63.63L60,34.16l-.57-.57L60.21,32,58.7,30.48l-1.61.75Zm3.94.76,1.13-2.3L59.24,30.2Z"
          style="fill:#fff"/>
    <path d="M64.35,30.78l.74.74-2.16,4.34h0l4.34-2.15.74.74-3.86,3.86-.48-.48,3.25-3.25h0l-4.33,2.16-.51-.51,2.16-4.33h0L61,35.12l-.48-.48Z"
          style="fill:#fff"/>
    <path d="M68.82,35.26l.52.52-1.59,1.59,1,1a2.93,2.93,0,0,1,.52.68,1.59,1.59,0,0,1,.19.65,1.31,1.31,0,0,1-.11.6,1.87,1.87,0,0,1-.39.55,1.83,1.83,0,0,1-.55.38,1.39,1.39,0,0,1-.59.12,1.53,1.53,0,0,1-.61-.15,2.16,2.16,0,0,1-.6-.44L65,39.12Zm-1.8,5a1.72,1.72,0,0,0,.33.26.88.88,0,0,0,.35.12.77.77,0,0,0,.37-.05,1.15,1.15,0,0,0,.38-.27,1.12,1.12,0,0,0,.26-.38.73.73,0,0,0,0-.38,1,1,0,0,0-.15-.38,2.41,2.41,0,0,0-.32-.39l-1-1-1.37,1.36Zm5.22-1.59.51.51L68.89,43l-.51-.51Z"
          style="fill:#fff"/>
    <path d="M73.55,40l.51.51-3.12,3.12h0L76,42.47l.6.6-3.86,3.86-.52-.52,3.14-3.14h0l-5.1,1.18-.6-.6Zm2,0a.6.6,0,0,0-.13.47.85.85,0,0,0,.25.43.8.8,0,0,0,.44.25A.64.64,0,0,0,76.6,41l.47.47a.93.93,0,0,1-.38.24,1,1,0,0,1-.44,0,1.34,1.34,0,0,1-.46-.16,2.13,2.13,0,0,1-.45-.35A2,2,0,0,1,75,40.8a1.36,1.36,0,0,1-.16-.46.93.93,0,0,1,0-.43.88.88,0,0,1,.23-.36Z"
          style="fill:#fff"/>
    <path d="M43.49,25.65,44.87,27l.39.41a2.41,2.41,0,0,1,.27.37,1.49,1.49,0,0,1,.15.38,1.21,1.21,0,0,1-.09.82,1.42,1.42,0,0,1-.29.39,1.37,1.37,0,0,1-.24.19,1.23,1.23,0,0,1-.31.14,1.19,1.19,0,0,1-.37,0,1.08,1.08,0,0,1-.4-.09,1.86,1.86,0,0,1,.13.35,1.27,1.27,0,0,1,0,.41,1.28,1.28,0,0,1-.1.44,1.41,1.41,0,0,1-.31.45,1.76,1.76,0,0,1-.29.23,1.49,1.49,0,0,1-.36.16,1.59,1.59,0,0,1-.41.07,1.48,1.48,0,0,1-.45-.06,2,2,0,0,1-.48-.21,2.65,2.65,0,0,1-.49-.4l-1.63-1.63Zm-1.86,5a2.23,2.23,0,0,0,.47.38,1,1,0,0,0,.41.14.7.7,0,0,0,.36-.06,1.16,1.16,0,0,0,.55-.55.72.72,0,0,0,.06-.37,1.06,1.06,0,0,0-.14-.41,2.22,2.22,0,0,0-.38-.47l-1-1L40.6,29.57Zm1.69-1.84a2,2,0,0,0,.46.36.85.85,0,0,0,.37.11.58.58,0,0,0,.31-.08,1.42,1.42,0,0,0,.27-.21.94.94,0,0,0,.2-.28.58.58,0,0,0,0-.31,1,1,0,0,0-.14-.36,2.09,2.09,0,0,0-.33-.41l-1-1-1.19,1.19Z"
          style="fill:#fff"/>
    <path d="M47.07,29.24l.52.52L46,31.35l1,1a2.89,2.89,0,0,1,.52.68,1.58,1.58,0,0,1,.19.65,1.29,1.29,0,0,1-.11.6,1.85,1.85,0,0,1-.39.55,1.81,1.81,0,0,1-.55.38,1.4,1.4,0,0,1-.59.12,1.54,1.54,0,0,1-.61-.15,2.18,2.18,0,0,1-.6-.44L43.22,33.1Zm-1.8,5a1.71,1.71,0,0,0,.33.26.84.84,0,0,0,.35.12.74.74,0,0,0,.37-.05,1.15,1.15,0,0,0,.38-.27,1.12,1.12,0,0,0,.26-.38.73.73,0,0,0,0-.38,1,1,0,0,0-.15-.38,2.44,2.44,0,0,0-.32-.39l-1-1-1.36,1.37Zm5.22-1.6.51.51L47.14,37l-.51-.51Z"
          style="fill:#fff"/>
    <path d="M51.8,34l2.27,2.27-.45.45-1.75-1.75-3.41,3.41-.51-.51Z" style="fill:#fff"/>
    <path d="M56.23,42.26a3.56,3.56,0,0,1-.55.45,3.07,3.07,0,0,1-.62.32,2.85,2.85,0,0,1-.67.16,2.29,2.29,0,0,1-.7,0,2.42,2.42,0,0,1-.7-.25,3.07,3.07,0,0,1-1.17-1.17,2.4,2.4,0,0,1-.25-.7,2.36,2.36,0,0,1,0-.7,2.82,2.82,0,0,1,.16-.67A3,3,0,0,1,52,39a3.74,3.74,0,0,1,1.4-1.24,2.57,2.57,0,0,1,1-.27,2.34,2.34,0,0,1,1,.17A3.11,3.11,0,0,1,57,39.29a2.31,2.31,0,0,1,.17,1,2.59,2.59,0,0,1-.27,1A3.61,3.61,0,0,1,56.23,42.26Zm-.51-.51a2.94,2.94,0,0,0,.54-.73,2.05,2.05,0,0,0,.23-.77,1.72,1.72,0,0,0-.1-.75,2.11,2.11,0,0,0-1.16-1.16,1.71,1.71,0,0,0-.75-.1,2,2,0,0,0-.77.23A3,3,0,0,0,53,39a3.27,3.27,0,0,0-.56.73,2,2,0,0,0-.24.75,1.63,1.63,0,0,0,.1.75,2.33,2.33,0,0,0,1.2,1.2,1.6,1.6,0,0,0,.75.1A2,2,0,0,0,55,42.3,3.27,3.27,0,0,0,55.72,41.74Z"
          style="fill:#fff"/>
    <path d="M53.78,45.32,55.06,44l.35.35.36-.15.38-.21.45-.3.57-.44.66-.55.59-.53.49-.45.35-.34,2.43,2.43-3.41,3.41.44.44L57.44,49,57,48.49l.83-.83L55.1,45l-.83.83Zm5.51-3q-.37.38-.78.72l-.82.68-.57.45-.43.31-.37.22-.38.19,1.8,1.8,3-3Z"
          style="fill:#fff"/>
    <path d="M62.54,44.7l.51.51-1.59,1.59,2.05,2.05,1.59-1.59.52.52-3.86,3.86-.52-.52,1.82-1.82L61,47.26,59.2,49.08l-.51-.51Z"
          style="fill:#fff"/>
    <path d="M66.42,48.59l.52.52-1.59,1.59,1,1a2.88,2.88,0,0,1,.52.68,1.58,1.58,0,0,1,.19.64,1.29,1.29,0,0,1-.11.6,1.86,1.86,0,0,1-.39.55,1.83,1.83,0,0,1-.55.38,1.41,1.41,0,0,1-.59.12,1.52,1.52,0,0,1-.61-.15,2.15,2.15,0,0,1-.6-.44l-1.67-1.67Zm-1.8,5a1.72,1.72,0,0,0,.33.26.85.85,0,0,0,.35.12.76.76,0,0,0,.37-.05,1.17,1.17,0,0,0,.38-.27,1.13,1.13,0,0,0,.26-.38.72.72,0,0,0,0-.38,1,1,0,0,0-.15-.38,2.48,2.48,0,0,0-.32-.39l-1-1-1.36,1.37ZM69.84,52l.51.52-3.86,3.86L66,55.86Z"
          style="fill:#fff"/>
    <path d="M71.15,53.31l.51.52L68.54,57h0l5.08-1.16.6.6-3.86,3.86-.52-.52L73,56.6h0l-5.1,1.18-.6-.6Zm2,0a.6.6,0,0,0-.13.47.84.84,0,0,0,.25.43.8.8,0,0,0,.44.25.64.64,0,0,0,.46-.13l.47.47a1,1,0,0,1-.38.24,1,1,0,0,1-.44,0A1.33,1.33,0,0,1,73.4,55a2.1,2.1,0,0,1-.45-.35,2,2,0,0,1-.36-.47,1.38,1.38,0,0,1-.16-.47.94.94,0,0,1,0-.43.89.89,0,0,1,.23-.36Z"
          style="fill:#fff"/>
</svg>