<?xml version="1.0"?>
<svg width="130" height="120" xmlns="http://www.w3.org/2000/svg" xmlns:svg="http://www.w3.org/2000/svg">
 <title>icons_01</title>
 <g class="layer">
  <title>Layer 1</title>
  <path id="svg_1" fill="#ef3a5c" d="m105.491055,94.690352l0,23.67l-31,0l0,-10c-2.8,-2.14 -5.47,-4.1 -8,-6.18a24.29,24.29 0 0 1 -6.57,-7.53l-45.63,0a12.21,12.21 0 0 1 -9.46,-3.82a11.17,11.17 0 0 1 -3.16,-7.78q0,-34.58 0,-69.15a11.83,11.83 0 0 1 11.7,-11.65q51.63,0.12 103.25,0a11.88,11.88 0 0 1 11.83,11.95q0,34.1 0,68.2a11.91,11.91 0 0 1 -12.19,12.26c-2.87,0 -5.75,0 -8.62,0l-2.15,0.03zm-35.59,-13.24l0,-2.43q0,-20.21 0,-40.43a10.7,10.7 0 0 1 0,-1.72a3.57,3.57 0 0 1 3.79,-3.06a3.45,3.45 0 0 1 3.44,3.17a21.14,21.14 0 0 1 0.17,2.67q0,14.94 0,29.89c0,0.64 0,1.28 0,1.91a2.66,2.66 0 0 0 0.3,0.68l1.67,-0.19c0,-1 0,-1.82 0,-2.64c0,-4.85 0,-9.71 0,-14.56a3.48,3.48 0 0 1 3.6,-3.65a3.56,3.56 0 0 1 3.7,3.58c0,0.45 0,0.89 0,1.34q0,7 0,14c0,0.62 0.05,1.24 0.09,2l1.87,0l0,-2c0,-3.07 0,-6.13 0,-9.2a11.35,11.35 0 0 1 0.15,-2.09a3.41,3.41 0 0 1 3.94,-3c2,0.11 3.16,1.32 3.35,3.47c0,0.51 0,1 0,1.53c0,3.32 0,6.64 0,10a10.34,10.34 0 0 0 0.26,1.56l1.71,-0.23c0,-0.73 0.08,-1.35 0.09,-2c0,-1.92 0,-3.83 0,-5.75a3.44,3.44 0 0 1 3.59,-3.46a3.53,3.53 0 0 1 3.64,3.23a13.25,13.25 0 0 1 0,1.53q0,7.47 0,14.94c0,0.61 0.06,1.22 0.1,1.95l5.32,0l5.15,0l0,-67.77l-102,0a7.31,7.31 0 0 0 -0.1,0.83q0,33.24 0.08,66.47s0.07,0.1 0.11,0.15l0.13,0.14c3.89,0.33 43.71,0.18 45.25,-0.2l0,-1.86q0,-7.38 0,-14.75a10.65,10.65 0 0 1 0,-1.53a4.16,4.16 0 0 1 4.08,-3.71a3.89,3.89 0 0 1 4,2.88a7.26,7.26 0 0 1 0.2,1.89q0,7.19 0,14.33l0,2l2.32,0.09zm50.04,-30.73a2.4,2.4 0 0 0 2.39,-2.24a2.52,2.52 0 0 0 -2.38,-2.49a2.42,2.42 0 0 0 -2.35,2.48a2.23,2.23 0 0 0 4.66,2.33l-2.32,-0.08z"/>
  <path id="svg_2" fill="#ef3a5c" d="m82.491055,38.750352a2.3,2.3 0 0 1 -2.17,-2c0.48,-1.65 1,-2.21 2.16,-2.18a2,2 0 0 1 2,1.74c0.1,1.18 -0.31,1.73 -1.99,2.44z"/>
  <path id="svg_3" fill="#ef3a5c" d="m69.431055,32.280352l-1.69,1.08c-2,-0.67 -2.53,-1.41 -2.2,-2.69a2,2 0 0 1 2.31,-1.48c1.24,0.17 1.65,0.92 1.58,3.09z"/>
  <path id="svg_4" fill="#ef3a5c" d="m81.271055,32.360352l-1.57,1c-2,-0.59 -2.55,-1.29 -2.27,-2.6a1.94,1.94 0 0 1 2.24,-1.57c1.31,0.17 1.76,0.97 1.6,3.17z"/>
  <path id="svg_5" fill="#ef3a5c" d="m62.631055,36.620352c0.61,-1.65 1.21,-2.16 2.34,-2a2.18,2.18 0 0 1 1.8,1.72c0.19,1.13 -0.29,1.74 -1.94,2.43a2.19,2.19 0 0 1 -2.2,-2.15z"/>
  <path id="svg_6" fill="#ef3a5c" d="m66.261055,41.040352a2.05,2.05 0 0 1 2,2.05a2.12,2.12 0 0 1 -2.14,2a2,2 0 0 1 -2,-2.08a2,2 0 0 1 2.14,-1.97z"/>
  <path id="svg_7" fill="#ef3a5c" d="m80.301055,41.120352a5.76,5.76 0 0 1 0.71,-0.08c0.31,0 0.63,0 1.11,0.08l1.15,1.61c-0.22,1.39 -0.78,2.25 -2.07,2.32a1.9,1.9 0 0 1 -2,-1.19c-0.4,-0.94 -0.11,-1.68 1.1,-2.74z"/>
  <path id="svg_8" fill="#ef3a5c" d="m73.291055,31.160352a1.89,1.89 0 0 1 -2,-2.06a2,2 0 0 1 2.07,-2a2.06,2.06 0 0 1 2,2.1a1.93,1.93 0 0 1 -2.07,1.96z"/>
 </g>
</svg>