<?xml version="1.0"?>
<svg width="160" height="90" xmlns="http://www.w3.org/2000/svg" xmlns:svg="http://www.w3.org/2000/svg">
 <title>icons_01</title>
 <g class="layer">
  <title>Layer 1</title>
  <path id="svg_1" fill="#f79f9e" d="m155.07,79.621504c-0.07,-1.32 -0.38,-3.53 -1.5,-4.38c-6.8,-5.11 -20.91,-8.42 -21.75,-9.24a5.72,5.72 0 0 1 -0.93,-4.05a9.4,9.4 0 0 1 1.09,-2.95c3.44,-3.57 5.66,-9.13 5.66,-15.39c0,-10.79 -6.58,-19.54 -14.69,-19.54s-14.7,8.75 -14.7,19.54c0,6.26 2.22,11.82 5.66,15.39a9.4,9.4 0 0 1 1.09,2.95a5.75,5.75 0 0 1 -0.93,4.05c-0.85,0.83 -15,4.13 -21.75,9.24c-1.13,0.85 -1.43,3.06 -1.5,4.38c-0.09,1.67 -0.07,4.7 2,5.12c3.46,0.68 21.42,1.05 27.9,1.05l4.43,0c6.47,0 24.44,-0.37 27.9,-1.05c2.08,-0.45 2.11,-3.45 2.02,-5.12z"/>
  <path id="svg_2" fill="#f26a73" d="m126.63,78.431504c-0.08,-1.57 -0.45,-4.2 -1.79,-5.22c-8.11,-6.09 -24.91,-10 -25.92,-11c-0.8,-0.79 -1.38,-3.2 -1.11,-4.83a11.2,11.2 0 0 1 1.3,-3.51c4.1,-4.26 6.75,-10.88 6.75,-18.34c0,-12.86 -7.84,-23.29 -17.51,-23.29s-17.51,10.42 -17.51,23.28c0,7.46 2.64,14.08 6.75,18.34a11.2,11.2 0 0 1 1.3,3.51c0.27,1.63 -0.31,4 -1.11,4.83c-1,1 -17.82,4.93 -25.93,11c-1.34,1 -1.71,3.65 -1.79,5.22c-0.11,2 -0.08,5.61 2.4,6.1c4.12,0.82 25.53,1.26 33.25,1.26l5.27,0c7.72,0 29.13,-0.44 33.25,-1.26c2.47,-0.48 2.51,-4.09 2.4,-6.09z"/>
  <path id="svg_3" fill="#ef3a5c" d="m92.87,77.381504c-0.1,-1.79 -0.51,-4.81 -2,-6c-9.27,-7 -28.48,-11.46 -29.63,-12.59c-0.92,-0.9 -1.58,-3.66 -1.27,-5.52a12.8,12.8 0 0 1 1.49,-4c4.68,-4.87 7.71,-12.44 7.71,-21c0,-14.7 -9,-26.62 -20,-26.62s-20,11.92 -20,26.62c0,8.53 3,16.1 7.71,21a12.8,12.8 0 0 1 1.49,4c0.3,1.86 -0.35,4.62 -1.26,5.52c-1.16,1.12 -20.37,5.63 -29.64,12.59c-1.54,1.16 -2,4.17 -2,6c-0.12,2.28 -0.09,6.41 2.74,7c4.71,0.93 29.18,1.44 38,1.44l6,0c8.82,0 33.29,-0.5 38,-1.44c2.75,-0.59 2.79,-4.72 2.66,-7z"/>
 </g>
</svg>