<?xml version="1.0"?>
<svg width="160" height="120" xmlns="http://www.w3.org/2000/svg" xmlns:svg="http://www.w3.org/2000/svg">
 <title>icons_01</title>
 <g class="layer">
  <title>Layer 1</title>
  <path id="svg_1" fill="none" stroke="#ef3a5c" stroke-linecap="round" stroke-linejoin="round" stroke-width="14px" d="m109.22375,107.26875c4.88,0 9.76,0 14.64,0a21.82,21.82 0 0 0 4.32,-0.6a25.84,25.84 0 0 0 19.84,-21.46c1.21,-9.19 -1.69,-16.86 -8.46,-23.08a25.79,25.79 0 0 0 -14.16,-6.41c0,-0.46 -0.09,-0.74 -0.1,-1a48.37,48.37 0 0 0 -2.89,-15.51c-4.86,-12.94 -13.5,-22.26 -26.53,-27.18a41.3,41.3 0 0 0 -21.79,-1.8c-8.78,1.47 -16.7,4.8 -23.3,10.86a26.64,26.64 0 0 0 -8.77,15.73a12.88,12.88 0 0 1 -0.48,1.61c-10.13,1.07 -18.45,5.48 -24.54,13.53a33,33 0 0 0 -6.47,27.37c3.27,16.47 17.1,27.63 33.7,28"/>
  <path id="svg_2" fill="#ef3a5c" d="m97.87375,113.21875a13.74,13.74 0 0 1 1.09,1.45c0.88,1.59 0.1,3.73 -1.69,3.91a35.22,35.22 0 0 1 -7.48,0c-1.8,-0.2 -2.54,-2.33 -1.65,-3.95a12.3,12.3 0 0 1 1.11,-1.43l-20.22,0a13.57,13.57 0 0 1 1,1.24c1.07,1.75 0.26,4 -1.74,4.2a34.44,34.44 0 0 1 -7.08,0a2.63,2.63 0 0 1 -1.81,-4.15a11.44,11.44 0 0 1 1,-1.19a2.1,2.1 0 0 0 -0.52,-0.19c-2.95,-0.19 -3.86,-1.08 -3.86,-4q0,-26.23 0,-52.45c0,-3 1.05,-4 4,-4q19.12,0 38.24,0c3,0 4.05,1 4.05,4q0,26.12 0,52.24c-0.03,3.2 -0.86,4 -4.44,4.32zm-1.58,-37.23c-2.31,-0.43 -32.9,-0.34 -34.38,0.07l0,13.89l34.38,0l0,-13.96zm-34.46,-6.12l34.46,0l0,-11.23c-2.32,-0.39 -32.9,-0.32 -34.46,0.07l0,11.16zm34.47,15.08c-2.08,-0.47 -32.87,-0.41 -34.42,0l0,11l34.42,0l0,-11z"/>
  <path id="svg_3" fill="#ef3a5c" d="m90.62375,81.41875c2.2,0.67 3.09,1.7 2.9,3.24a3,3 0 0 1 -2.84,2.53a3.08,3.08 0 0 1 -2.91,-2.47c-0.23,-1.48 0.76,-2.65 2.85,-3.3z"/>
  <path id="svg_4" fill="#ef3a5c" d="m93.54375,64.19875a2.9,2.9 0 1 1 -2.94,-2.88a3,3 0 0 1 2.94,2.88z"/>
  <path id="svg_5" fill="#ef3a5c" d="m90.58375,104.39875a2.92,2.92 0 0 1 -2.83,-2.94a2.9,2.9 0 0 1 5.79,0.15a2.83,2.83 0 0 1 -2.96,2.79z"/>
 </g>
</svg>