<?xml version="1.0"?>
<svg width="140" height="140" xmlns="http://www.w3.org/2000/svg" xmlns:svg="http://www.w3.org/2000/svg">
 <title>icons_01</title>
 <g class="layer">
  <title>Layer 1</title>
  <path id="svg_1" fill="#ef3a5c" d="m51.11375,127.088125l-0.23,5l-31.87,0l5.23,-20.51c-2.1,-3 -4.2,-5.68 -5.87,-8.57s-2.82,-5.9 -4.32,-9.1l-7.75,0c-0.09,-8.5 0,-16.81 0,-25.38l9.06,0a53.87,53.87 0 0 1 8.94,-14.13l-14.76,-11.32c1.19,-0.83 2.16,-1.61 3.22,-2.22c5.57,-3.18 11.47,-4.89 18,-4a15.17,15.17 0 0 1 9.26,4.63c0.27,0.28 0.57,0.54 0.91,0.86l5.29,-2c4.63,12 13.1,19.69 25.86,21.5s23.1,-3 30.85,-13.25c4.23,2.42 8.12,6.84 14.15,16.05l2,-0.79a3,3 0 0 0 -0.31,-0.61c-2,-2.27 -3.12,-4.84 -2.49,-7.94a7.14,7.14 0 0 1 6.07,-5.73a6.86,6.86 0 0 1 7,3.78a8.17,8.17 0 0 1 0.61,6.52c-0.2,0.6 -0.38,1.21 -0.68,2.13l4.41,0.3l0.59,4.43c-3.33,0.76 -6.37,0 -9.4,-0.4l-5.89,2.75c3.66,12.33 3.38,24.2 -4.13,35.59l0,27.08c-1.82,0.53 -28.48,0.68 -31.85,0.18l1.27,-5.36a63.53,63.53 0 0 1 -33.17,0.51zm-16.22,-53.94c0.82,3.55 2.47,5 5.3,4.79a4.65,4.65 0 0 0 4.26,-4.68a4.59,4.59 0 0 0 -4,-4.65c-2.89,-0.36 -4.61,0.97 -5.56,4.54zm88.87,-12.46c2.46,-2.88 2.32,-4.78 -0.38,-6.32a2.57,2.57 0 0 0 -2.62,2.51c0.38,1.7 1.08,3.16 3,3.81z"/>
  <path id="svg_2" fill="#ef3a5c" d="m101.91375,30.378125c0.24,13.16 -10.7,25.32 -25.45,25.34a25.46,25.46 0 1 1 0.21,-50.91c14.85,0.12 25.63,12.59 25.24,25.57zm-27.17,-13.51c-1.16,0.27 -2.09,0.46 -3,0.71a6.34,6.34 0 0 0 -5,5.29a6.6,6.6 0 0 0 2.71,7a27.5,27.5 0 0 0 4.24,2.21c1.31,0.61 2.69,1 4,1.65a1.89,1.89 0 0 1 1.25,2.59a10.49,10.49 0 0 1 -2.16,0.63a15.58,15.58 0 0 1 -7.24,-1.37c-0.77,-0.31 -1.58,-0.54 -2.49,-0.85l0,6.19l7.68,2l0.23,3.08l3,0l0.32,-3.42c1.09,-0.28 2.11,-0.47 3.08,-0.81a7.11,7.11 0 0 0 5,-6.14a6.44,6.44 0 0 0 -3.79,-7.05c-1.35,-0.68 -2.79,-1.19 -4.19,-1.79c-1,-0.44 -2.06,-0.89 -3.07,-1.36c-0.8,-0.37 -1.27,-1 -1,-2.3c3.2,-1.65 6.29,0.06 9.64,0.95l2.06,-5.12c-2.46,-1.41 -5.09,-1.67 -7.62,-2l-0.55,-2.48l-3,0l-0.1,2.39z"/>
 </g>
</svg>